<svg width="2043" height="451" viewBox="0 0 2043 451" fill="none" xmlns="http://www.w3.org/2000/svg">
<path d="M1267.66 291.002L1116.74 95.2535H1079.27V358.184H1118.11V156.979L1276.17 358.184H1309.56V95.2535H1269.7V291.343H1267.66V291.002ZM886.118 241.553H1022.38V207.11H886.118V127.651H1039.76V93.5483H847.283V357.161H1040.78V322.718H886.118V241.553ZM727.029 208.815C674.227 195.515 659.579 185.625 659.579 161.412C659.579 137.2 679.678 123.9 708.293 123.9C734.183 125.264 759.051 134.13 779.832 149.818L799.931 121.171C774.041 100.369 741.337 89.115 707.952 89.456C665.029 83.6585 625.853 113.669 620.062 156.638C620.062 157.32 619.721 158.002 619.721 158.684V164.482C619.721 207.792 651.062 227.912 707.271 242.235C755.986 253.83 770.293 263.72 770.293 288.274C770.293 312.828 750.194 327.151 718.513 327.151C687.172 327.151 656.853 315.215 634.029 293.73L611.205 321.012C640.842 347.271 679.337 360.912 718.854 359.889C774.722 359.889 810.832 328.174 810.832 282.135C809.469 243.258 784.942 221.774 726.007 208.815H727.029ZM2000.76 95.2535L1921.38 219.046L1842.01 95.2535H1797.38L1900.6 253.489V357.502H1939.44V253.489L2043 95.2535H2000.76ZM1336.13 129.697H1422.32V357.502H1461.15V129.697H1548.02V93.8894H1336.13V129.697ZM1729.59 254.853C1767.41 247.692 1794.32 213.93 1792.61 175.394C1792.61 125.264 1755.14 93.5483 1696.21 93.5483H1578.68V357.502H1617.52V262.015H1683.6L1749.69 356.82H1795.68L1723.8 256.218L1729.59 254.853ZM1618.2 228.936V129.697H1691.44C1730.27 129.697 1751.74 147.089 1751.74 178.464C1751.74 209.838 1728.91 228.936 1691.44 228.936H1618.2Z" fill="#362D59"/>
<path d="M296.485 23.6302C283.535 1.13805 254.91 -6.70014 232.419 6.24987L232.079 6.59068C224.922 11.0209 219.129 16.8144 214.699 23.971L148.589 138.817L165.969 149.041C261.726 203.908 322.724 303.759 328.176 413.834H280.809C274.334 320.799 222.196 237.305 141.433 190.617L124.054 180.393L60.6703 286.379L78.0496 296.603C119.624 321.14 147.908 363.398 154.042 411.449H48.4025C44.3132 411.79 40.5647 408.723 39.8832 404.633C39.5424 402.929 40.2239 401.566 41.2463 400.203L71.2342 348.403C61.011 339.542 49.4248 332.726 36.8162 328.296L6.48752 380.096C-6.80259 402.588 1.03517 431.556 23.5261 444.846C23.5261 444.846 23.5261 444.846 23.8669 444.846C31.0231 448.936 38.8609 450.981 47.0394 450.64H194.934V430.533C194.594 368.169 164.606 309.553 114.512 272.407L137.344 232.534C202.772 277.519 241.961 351.811 242.302 431.215V450.299H368.728V430.192C368.047 306.486 305.345 190.958 202.091 122.8L249.458 41.0105C252.184 37.2618 256.955 35.8986 261.044 37.9434C262.407 37.9434 262.407 39.3065 264.111 41.0105L470.96 398.499C472.664 402.248 471.301 406.337 467.893 408.723C466.53 408.723 464.826 410.086 463.804 410.086H413.369V448.936H462.1C487.998 448.595 509.126 427.466 509.467 401.566C509.808 393.387 507.763 385.549 503.674 378.733L296.485 23.6302Z" fill="#362D59"/>
</svg>
